<svg viewBox="0 0 5905 8307" fill="none" stroke="black" stroke-width="10" stroke-linecap="round" stroke-linejoin="round">
    <rect width="5905" height="8307" fill="aliceblue"/>
    <!-- id = ACECAD_DIGIMEMO_HANDWRITING_____ -->
    <!-- version = 1 -->
    <!-- width = 5905 -->
    <!-- height = 8307 -->
    <!-- page type = 0 -->
    <polyline points="570,1038 568,1043 567,1049 565,1055 567,1065 567,1079 568,1096 570,1118 571,1138 573,1160 575,1183 576,1203 576,1219 577,1231 577,1238 577,1244 577,1244"/>
    <!-- Timestamp = 1580ms -->
    <polyline points="447,1055 454,1055 468,1056 489,1055 517,1057 545,1057 571,1059 593,1060 608,1061 620,1061 628,1061 633,1062 634,1067 634,1067"/>
    <!-- Timestamp = 320ms -->
    <polyline points="674,1002 671,1007 668,1015 667,1026 667,1049 667,1074 667,1104 667,1134 667,1161 669,1184 671,1201 673,1212 674,1218 677,1213 678,1207 681,1190 685,1171 691,1155 697,1144 702,1136 707,1132 712,1131 719,1138 725,1148 731,1161 736,1173 741,1185 747,1195 754,1205 760,1212 766,1215 773,1215 780,1212 787,1208 793,1200 801,1190 806,1182 810,1176 812,1182 816,1192 821,1201 825,1208 831,1214 838,1216 846,1219 856,1218 864,1214 870,1211 876,1207 880,1202 883,1196 887,1190 890,1184 894,1179 899,1177 905,1180 913,1189 922,1199 930,1212 936,1222 940,1230 942,1236 936,1240 929,1241 920,1240 908,1237 908,1237"/>
    <!-- Timestamp = 60ms -->
    <polyline points="778,1116 773,1117 773,1117"/>
    <!-- Timestamp = 460ms -->
    <polyline points="1134,1229 1138,1220 1142,1213 1146,1206 1148,1201 1148,1208 1149,1213 1152,1219 1157,1225 1163,1230 1172,1232 1180,1234 1187,1236 1194,1234 1200,1233 1205,1229 1208,1224 1213,1220 1218,1217 1222,1211 1227,1207 1232,1203 1239,1202 1247,1201 1256,1203 1264,1207 1269,1211 1273,1217 1278,1222 1278,1227 1272,1233 1263,1238 1250,1239 1250,1239"/>
    <!-- Timestamp = 100ms -->
    <polyline points="1107,1137 1107,1137"/>
    <!-- Timestamp = 300ms -->
    <polyline points="1538,1173 1533,1176 1526,1182 1516,1192 1504,1203 1492,1212 1484,1220 1477,1229 1474,1237 1472,1243 1476,1250 1481,1253 1488,1253 1496,1249 1506,1242 1515,1233 1524,1223 1530,1215 1535,1208 1535,1216 1535,1224 1537,1232 1539,1240 1541,1251 1546,1261 1546,1261"/>
    <!-- Timestamp = 340ms -->
    <polyline points="1814,1040 1813,1049 1812,1058 1812,1073 1812,1093 1814,1117 1819,1144 1827,1173 1834,1196 1844,1217 1853,1230 1862,1241 1875,1246 1887,1249 1900,1248 1909,1244 1920,1234 1934,1220 1941,1208 1947,1196 1952,1187 1946,1183 1939,1185 1932,1190 1922,1200 1914,1211 1910,1223 1911,1234 1915,1242 1921,1249 1932,1253 1947,1254 1962,1252 1976,1248 1989,1242 1999,1235 2007,1231 2012,1227 2015,1222 2020,1220 2021,1229 2021,1238 2018,1249 2012,1259 2004,1266 1997,1270 1991,1272 1998,1271 2010,1269 2028,1266 2049,1262 2072,1254 2094,1246 2112,1236 2123,1225 2129,1212 2133,1194 2134,1176 2132,1155 2129,1136 2127,1122 2125,1113 2122,1108 2121,1119 2120,1139 2122,1163 2126,1188 2132,1212 2138,1233 2143,1254 2147,1278 2147,1278"/>
    <!-- Timestamp = 80ms -->
    <polyline points="2067,1190 2074,1181 2089,1171 2110,1161 2133,1152 2157,1153 2157,1153"/>
    <!-- Timestamp = 160ms -->
    <polyline points="1704,1150 1720,1149 1746,1146 1781,1141 1828,1137 1883,1135"/>
    <!-- Timestamp = 380ms -->
    <polyline points="2369,1099 2367,1110 2367,1126 2369,1148 2372,1170 2378,1192 2387,1213 2396,1228 2408,1237 2421,1242 2437,1243 2454,1240 2470,1233 2481,1223 2487,1216 2493,1212 2489,1219 2483,1226 2483,1231 2484,1236 2494,1240 2505,1242 2516,1242 2523,1242 2528,1240 2528,1240"/>
    <!-- Timestamp = 100ms -->
    <polyline points="2322,1163 2335,1163 2359,1162 2390,1158 2429,1153 2462,1147"/>
    <!-- Timestamp = 300ms -->
    <polyline points="2761,1293 2761,1287 2771,1278 2786,1262 2800,1246 2814,1233 2823,1219 2830,1205 2834,1190 2837,1181 2838,1176 2839,1189 2842,1205 2846,1222 2851,1238 2850,1250 2850,1260 2845,1270 2835,1277 2821,1281 2809,1284 2800,1283 2800,1277 2806,1272 2821,1264 2843,1257 2868,1251 2894,1245 2919,1239 2944,1231 2965,1224 2976,1221 2982,1218 2977,1215 2970,1214 2960,1213 2947,1216 2932,1221 2921,1229 2913,1238 2909,1244 2910,1249 2913,1254 2922,1259 2937,1262 2954,1261 2972,1260 2992,1256 3014,1248 3029,1240 3040,1232 3045,1228 3040,1230 3031,1238 3028,1247 3027,1258 3027,1269 3029,1280 3035,1293 3035,1293"/>
    <!-- Timestamp = 320ms -->
    <polyline points="3356,1248 3368,1243 3390,1231 3417,1217 3448,1198 3478,1179 3500,1161 3511,1142 3519,1118 3520,1095 3516,1071 3510,1057 3505,1049 3499,1046 3494,1050 3490,1060 3487,1079 3485,1110 3483,1144 3485,1178 3486,1206 3486,1229 3486,1247 3487,1257 3492,1249 3497,1237 3502,1225 3508,1214 3518,1208 3525,1206 3530,1209 3537,1217 3545,1226 3555,1233 3566,1239 3580,1243 3600,1244 3619,1244 3637,1241 3652,1236 3660,1233 3666,1231 3659,1232 3651,1239 3646,1246 3645,1251 3643,1257 3649,1262 3656,1264 3664,1264 3669,1262 3674,1261 3676,1254 3676,1249 3673,1243 3673,1238 3672,1232 3674,1227 3683,1223 3691,1221 3699,1223 3707,1228 3712,1236 3716,1243 3720,1251 3724,1259 3727,1265 3734,1268 3742,1268 3750,1266 3757,1264 3762,1264 3768,1266 3773,1267 3779,1270 3785,1272 3790,1273 3799,1272 3809,1271 3818,1269 3824,1267 3826,1259 3829,1254 3830,1252"/>
    <!-- Timestamp = 300ms -->
    <polyline points="4050,1321 4048,1316 4052,1308 4060,1298 4068,1288 4074,1277 4079,1263 4084,1252 4088,1244 4089,1251 4093,1259 4100,1263 4108,1267 4115,1269 4125,1271 4136,1270 4148,1268 4155,1265 4164,1259 4169,1256 4174,1255 4176,1261 4181,1270 4186,1275 4193,1280 4202,1282 4210,1285 4219,1283 4224,1278 4226,1269 4228,1261 4229,1254 4229,1249 4236,1243 4247,1238 4263,1233 4280,1225 4298,1218 4311,1213 4321,1209 4326,1207 4318,1209 4307,1213 4296,1220 4286,1229 4281,1236 4279,1244 4282,1252 4289,1258 4302,1262 4321,1260 4345,1253 4370,1243 4396,1229 4415,1214 4429,1194 4439,1171 4447,1147 4451,1124 4450,1102 4450,1087 4448,1076 4444,1070 4437,1068 4428,1076 4417,1096 4407,1124 4403,1157 4407,1193 4414,1222 4422,1244 4432,1262 4447,1271 4459,1273 4470,1267 4484,1254 4497,1236 4508,1211 4519,1177 4526,1140 4532,1109 4535,1082 4539,1067 4537,1059 4534,1065 4532,1081 4525,1104 4519,1134 4511,1167 4506,1197 4504,1223 4504,1223"/>
    <!-- Timestamp = 380ms -->
    <polyline points="4731,1274 4732,1267 4733,1258 4735,1246 4742,1238 4749,1231 4757,1226 4762,1224 4767,1227 4772,1232 4773,1239 4778,1242 4781,1237 4788,1231 4794,1226 4802,1224 4807,1228 4812,1233 4815,1238 4820,1243 4828,1247 4834,1251 4842,1253 4850,1254 4858,1255 4866,1256 4873,1254 4882,1253 4893,1252 4903,1251 4916,1250 4929,1250 4940,1252 4948,1260 4955,1276 4961,1295 4966,1319 4969,1341 4969,1356 4970,1368 4970,1374 4970,1374"/>
    <!-- Timestamp = 860ms -->
    <polyline points="473,1633 483,1624 495,1612 510,1598 521,1585 529,1568 536,1551 540,1542 542,1537 545,1548 548,1561 550,1577 552,1590 552,1605 547,1620 533,1629 521,1634 512,1637 519,1627 533,1618 551,1605 575,1592 597,1578 615,1564 628,1553 636,1539 638,1524 635,1507 630,1491 623,1473 617,1460 611,1452 606,1449 600,1455 596,1473 595,1497 597,1523 602,1550 609,1573 620,1595 637,1609 656,1617 678,1619 701,1615 718,1614 732,1607 743,1602 750,1598 743,1599 737,1599 730,1606 727,1612 727,1617 735,1620 743,1620 751,1619 756,1617 764,1615 774,1617 787,1623 798,1634 806,1652 813,1672 814,1691 815,1708 815,1720 814,1726 809,1718 806,1706 803,1688 801,1667 800,1641 804,1620 808,1600 814,1587 819,1580 820,1586 818,1595 815,1607 810,1617 807,1625 811,1630 817,1634 828,1639 841,1644 857,1650 869,1655 877,1664 882,1672 883,1679 883,1685 879,1692 874,1686 871,1678 868,1667 869,1649 872,1626 879,1609 889,1595 899,1584 908,1581 907,1592 903,1605 896,1614 892,1619 901,1618 913,1619 926,1620 938,1621 949,1623 958,1624 965,1626 972,1628 982,1633 993,1638 1006,1649 1017,1666 1027,1688 1034,1716 1040,1748 1042,1778 1041,1801 1040,1818 1038,1832 1037,1840 1037,1840"/>
    <!-- Timestamp = 400ms -->
    <polyline points="1324,1424 1321,1445 1320,1478 1320,1516 1321,1555 1320,1596 1320,1621 1321,1635 1321,1641 1320,1627 1318,1613 1318,1596 1322,1579 1327,1569 1331,1564 1336,1565 1344,1574 1350,1581 1355,1589 1363,1595 1373,1599 1384,1603 1396,1605 1411,1606 1428,1605 1443,1604 1458,1602 1468,1599 1479,1597 1486,1595 1491,1593 1483,1596 1475,1600 1465,1608 1458,1613 1457,1618 1465,1619 1472,1618 1478,1618 1484,1617 1494,1615 1506,1612 1519,1611 1532,1610 1545,1608 1560,1609 1576,1610 1590,1612 1603,1612 1617,1611 1630,1613 1638,1612 1643,1612 1640,1618 1637,1623 1634,1629 1641,1622 1649,1615 1657,1604 1664,1590 1671,1573 1673,1552 1675,1532 1676,1521 1676,1514 1673,1522 1673,1537 1673,1556 1673,1574 1677,1594 1679,1606 1681,1616 1685,1621 1690,1623 1698,1623 1710,1624 1722,1620 1734,1617 1742,1615 1748,1612 1753,1607 1759,1603 1759,1598 1758,1605 1759,1610 1762,1616 1768,1618 1777,1618 1785,1619 1791,1619 1797,1618 1804,1617 1811,1618 1819,1617 1827,1618 1836,1617 1844,1618 1852,1620 1864,1622 1872,1622 1878,1623 1877,1618 1874,1610 1873,1602 1875,1596 1881,1591 1887,1588 1895,1584 1900,1584 1905,1582 1913,1586 1922,1590 1928,1595 1933,1600 1938,1607 1944,1611 1949,1613 1954,1612 1959,1613 1964,1613 1969,1613 1977,1613 1982,1611 1987,1607 1996,1610 2005,1611 2013,1607 2027,1601 2040,1593 2054,1583 2064,1571 2071,1557 2075,1541 2075,1523 2075,1510 2074,1501 2072,1495 2069,1503 2068,1518 2070,1535 2072,1554 2076,1573 2084,1593 2096,1605 2106,1610 2117,1615 2129,1618 2138,1620 2146,1621 2153,1621 2162,1621 2167,1621 2173,1622 2184,1625 2193,1627 2202,1633 2210,1641 2223,1654 2234,1672 2244,1694 2257,1720 2267,1747 2274,1775 2279,1802 2285,1824 2289,1842 2291,1853 2288,1848"/>
    <!-- Timestamp = 180ms -->
    <polyline points="2026,1515 2035,1514 2054,1516 2080,1515 2108,1515 2134,1518 2156,1522 2156,1522"/>
    <!-- Timestamp = 80ms -->
    <polyline points="1932,1516 1919,1516 1913,1516 1920,1517 1938,1512"/>
    <!-- Timestamp = 360ms -->
    <polyline points="2437,1611 2441,1604 2447,1596 2452,1589 2457,1585 2461,1590 2466,1590 2471,1593 2483,1591 2497,1587 2509,1582 2523,1579 2535,1582 2544,1586 2552,1590 2557,1592 2562,1597 2562,1597"/>
    <!-- Timestamp = 100ms -->
    <polyline points="2491,1483 2491,1483"/>
    <!-- Timestamp = 340ms -->
    <polyline points="2834,1552 2826,1556 2817,1562 2800,1574 2784,1585 2774,1596 2768,1603 2767,1609 2774,1615 2787,1616 2802,1615 2818,1614 2835,1613 2852,1606 2872,1600 2891,1594 2906,1589 2916,1584 2927,1580 2934,1579 2927,1582 2918,1586 2907,1590 2898,1595 2891,1601 2886,1602 2891,1602 2898,1602 2905,1600 2910,1599 2916,1599 2921,1599 2926,1601 2935,1601 2947,1609 2963,1616 2979,1630 2992,1646 3002,1662 3010,1677 3015,1690 3016,1699 3014,1704 3009,1707 3004,1702 2997,1696 2988,1684 2981,1667 2976,1648 2973,1623 2979,1603 2988,1588 3003,1576 3016,1570 3029,1567 3035,1570 3041,1574 3040,1584 3030,1599 3022,1608 3015,1612 3011,1617 3019,1613 3032,1605 3054,1593 3071,1580 3082,1566 3091,1555 3096,1540 3099,1526 3102,1512 3101,1500 3100,1493 3095,1499 3094,1513 3096,1530 3097,1549 3099,1565 3103,1579 3110,1590 3118,1597 3123,1603 3132,1606 3141,1606 3152,1606 3159,1603 3165,1603 3170,1602 3178,1608 3186,1611 3193,1611 3201,1614 3209,1616 3218,1618 3225,1620 3232,1621 3239,1622 3244,1621 3249,1623 3254,1622 3259,1621 3264,1620 3269,1618 3277,1617 3283,1616 3288,1615 3294,1615 3301,1614 3309,1618 3317,1621 3326,1623 3333,1623 3342,1623 3352,1623 3358,1623 3365,1622 3372,1620 3379,1619 3374,1621 3371,1627 3372,1632 3379,1635 3387,1635 3398,1634 3412,1633 3427,1630 3443,1627 3460,1624 3473,1622 3482,1620 3487,1620 3481,1625 3470,1629 3461,1632 3468,1629 3479,1624 3487,1615 3496,1606 3502,1597 3508,1584 3511,1570 3513,1554 3514,1541 3514,1529 3513,1522 3512,1527 3511,1541 3510,1559 3510,1583 3510,1612 3506,1635 3497,1662 3497,1662"/>
    <!-- Timestamp = 100ms -->
    <polyline points="3003,1539 3010,1538 3030,1537 3066,1535 3122,1535 3184,1536 3244,1537 3297,1535 3297,1535"/>
    <!-- Timestamp = 1120ms -->
    <polyline points="873,2224 871,2239 870,2267 872,2308 874,2367 876,2462 875,2555 870,2640 866,2721 864,2778 863,2818 862,2849 861,2866 860,2873 862,2878 866,2861 866,2861"/>
    <!-- Timestamp = 280ms -->
    <polyline points="906,2236 928,2230 970,2222 1030,2213 1101,2208 1181,2204 1265,2202 1340,2200 1404,2201 1455,2202 1490,2205 1512,2204 1522,2204 1520,2210 1518,2219 1518,2237 1517,2266 1517,2312 1517,2370 1519,2469 1521,2567 1524,2671 1529,2757 1532,2829 1536,2888 1538,2928 1539,2950 1539,2960 1539,2965 1534,2962 1522,2957 1502,2952 1471,2944 1409,2933 1333,2923 1247,2916 1140,2916 1044,2918 969,2920 919,2921 886,2921 866,2921 857,2921 861,2913 871,2893"/>
    <!-- Timestamp = 380ms -->
    <polyline points="1041,2227 1031,2238 1015,2259 991,2291 962,2328 930,2362 903,2392 882,2411 870,2424 864,2430 874,2426 874,2426"/>
    <!-- Timestamp = 180ms -->
    <polyline points="1144,2233 1138,2241 1129,2252 1109,2280 1084,2317 1051,2361 1007,2424 953,2479 904,2526 865,2563 844,2584 833,2595 840,2588 856,2574 856,2574"/>
    <!-- Timestamp = 180ms -->
    <polyline points="1233,2248 1224,2258 1213,2274 1198,2299 1178,2334 1149,2380 1096,2461 1029,2539 969,2609 919,2676 880,2717 856,2742 844,2753 838,2758 840,2753 851,2738 871,2711 871,2711"/>
    <!-- Timestamp = 140ms -->
    <polyline points="1337,2250 1329,2258 1320,2273 1308,2301 1288,2341 1259,2390 1220,2468 1150,2562 1085,2661 1017,2737 966,2793 929,2837 903,2864 887,2879 879,2886 879,2880 890,2856 913,2815 921,2765 921,2765"/>
    <!-- Timestamp = 80ms -->
    <polyline points="1437,2241 1449,2237 1455,2234 1454,2242 1450,2257 1442,2282 1429,2316 1414,2356 1386,2426 1345,2497 1298,2569 1249,2639 1201,2713 1146,2777 1109,2822 1086,2851 1069,2866 1063,2874 1064,2863 1072,2838 1091,2799 1091,2799"/>
    <!-- Timestamp = 80ms -->
    <polyline points="1458,2446 1453,2455 1445,2471 1438,2495 1426,2525 1411,2563 1384,2613 1355,2662 1322,2721 1280,2769 1243,2813 1214,2848 1196,2869 1185,2883 1179,2889 1185,2873 1197,2863 1217,2829"/>
    <!-- Timestamp = 100ms -->
    <polyline points="1531,2632 1520,2646 1503,2668 1484,2694 1462,2734 1434,2771 1407,2808 1383,2839 1365,2861 1354,2875 1349,2881 1354,2870 1354,2870"/>
    <!-- Timestamp = 60ms -->
    <polyline points="1527,2762 1521,2776 1512,2797 1498,2822 1483,2849 1469,2871 1457,2887 1449,2898 1445,2903 1450,2899"/>
    <!-- Timestamp = 2100ms -->
    <polyline points="1788,2562 1770,2565 1757,2569 1745,2570 1739,2572 1756,2576 1785,2581 1824,2587 1867,2592 1911,2596 1952,2600 1992,2601 2030,2601 2061,2602 2086,2603 2099,2604 2106,2605 2097,2610 2097,2610"/>
    <!-- Timestamp = 100ms -->
    <polyline points="1729,2682 1742,2681 1766,2680 1802,2677 1844,2675 1889,2675 1932,2671 1973,2668 2008,2665 2036,2664 2053,2661 2062,2662 2067,2663 2069,2665"/>
    <!-- Timestamp = 140ms -->
    <polyline points="1907,2505 1931,2505 1962,2505 2001,2508 2045,2513 2089,2520 2128,2529 2154,2540 2174,2550 2185,2562 2193,2581 2191,2605 2181,2639 2161,2678 2137,2721 2108,2757 2085,2783 2072,2800 2062,2809 2057,2814 2057,2814"/>
    <!-- Timestamp = 700ms -->
    <polyline points="2948,2159 2939,2158 2929,2158 2917,2162 2899,2176 2869,2193 2836,2221 2785,2264 2739,2311 2693,2357 2650,2418 2611,2481 2583,2545 2566,2609 2560,2681 2571,2741 2593,2790 2631,2830 2675,2857 2731,2870 2800,2869 2877,2858 2958,2835 3033,2797 3103,2745 3170,2685 3223,2611 3260,2530 3286,2450 3298,2385 3296,2333 3276,2286 3238,2245 3183,2210 3102,2180 3023,2163 2957,2160 2907,2167 2868,2178 2846,2197 2846,2197"/>
    <!-- Timestamp = 660ms -->
    <polyline points="2653,2391 2651,2412 2651,2449 2651,2493 2649,2546 2645,2601 2639,2652 2633,2701 2629,2739 2627,2763 2627,2774 2633,2775 2633,2775"/>
    <!-- Timestamp = 100ms -->
    <polyline points="2723,2293 2720,2308 2717,2332 2714,2369 2715,2430 2719,2494 2721,2563 2720,2626 2716,2691 2712,2738 2709,2769 2709,2783 2708,2791 2711,2775"/>
    <!-- Timestamp = 100ms -->
    <polyline points="2784,2230 2780,2273 2780,2339 2785,2445 2788,2547 2787,2655 2780,2733 2772,2785 2766,2812 2770,2825 2770,2825"/>
    <!-- Timestamp = 80ms -->
    <polyline points="2848,2119 2847,2143 2846,2206 2844,2285 2845,2389 2847,2491 2848,2587 2849,2681 2845,2747 2845,2786 2847,2804 2854,2794 2854,2794"/>
    <!-- Timestamp = 80ms -->
    <polyline points="2948,2167 2945,2220 2943,2293 2943,2397 2943,2492 2940,2580 2938,2653 2938,2707 2940,2737 2942,2748 2947,2738 2957,2701 2957,2701"/>
    <!-- Timestamp = 80ms -->
    <polyline points="3039,2189 3038,2254 3038,2331 3037,2429 3037,2521 3035,2602 3033,2673 3029,2717 3027,2738 3028,2745 3031,2733 3021,2723 3021,2723"/>
    <!-- Timestamp = 40ms -->
    <polyline points="3082,2153 3085,2160 3085,2208 3086,2279 3085,2358 3086,2458 3084,2548 3081,2622 3080,2688 3076,2732 3076,2751 3079,2743 3079,2743"/>
    <!-- Timestamp = 60ms -->
    <polyline points="3152,2182 3156,2196 3160,2232 3162,2292 3163,2365 3162,2455 3160,2536 3157,2605 3154,2656 3151,2687 3150,2705 3153,2710 3157,2696 3157,2696"/>
    <!-- Timestamp = 60ms -->
    <polyline points="3259,2159 3260,2197 3262,2256 3267,2326 3273,2407 3274,2479 3274,2547 3270,2599 3265,2639 3262,2664 3261,2674 3261,2674"/>
    <!-- Timestamp = 2540ms -->
    <polyline points="5828,243 5826,255 5825,270 5825,291 5825,315 5825,338 5824,355 5822,372 5822,383 5820,390 5818,378 5818,378"/>
    <!-- Timestamp = 140ms -->
    <polyline points="5803,188 5795,188 5781,200 5768,218 5753,240 5737,269 5725,300 5717,334 5715,362 5718,389 5726,408 5739,424 5754,432 5773,436 5793,434 5813,425 5830,415 5843,400 5853,373 5860,338 5862,298 5859,263 5852,227 5841,204 5828,185 5816,174 5806,174 5796,172 5785,175 5778,183"/>
    <!-- Timestamp = 2540ms -->
    <polyline points="3611,2411 3606,2410 3601,2412 3606,2415 3612,2417 3625,2418 3642,2422 3662,2424 3687,2425 3709,2426 3729,2427 3746,2424 3760,2426 3773,2427 3782,2428 3787,2430 3780,2431 3780,2431"/>
    <!-- Timestamp = 480ms -->
    <polyline points="3543,2542 3553,2546 3573,2549 3599,2547 3633,2541 3668,2536 3700,2533 3727,2531 3747,2531 3760,2530 3769,2530 3769,2530"/>
    <!-- Timestamp = 140ms -->
    <polyline points="3684,2400 3703,2400 3725,2402 3752,2405 3777,2409 3802,2413 3822,2421 3836,2427 3847,2435 3855,2448 3857,2465 3851,2486 3840,2513 3821,2540 3805,2562 3793,2581 3783,2594 3777,2602 3774,2608 3779,2609 3785,2605 3785,2605"/>
    <!-- Timestamp = 2540ms -->
    <polyline points="4173,2808 4181,2788 4192,2755 4210,2707 4231,2641 4257,2559 4288,2471 4329,2375 4370,2282 4411,2206 4448,2140 4477,2092 4495,2060 4507,2039 4513,2027 4515,2022 4516,2032 4519,2047 4526,2074 4536,2112 4553,2182 4581,2264 4612,2355 4640,2476 4668,2578 4693,2672 4716,2741 4737,2793 4751,2827 4763,2847 4770,2859 4772,2866 4766,2860 4755,2854 4738,2845 4714,2834 4678,2820 4631,2799 4572,2773 4484,2733 4386,2694 4293,2661 4190,2634 4105,2617 4034,2599 3976,2585 3925,2573 3896,2564 3877,2558 3867,2553 3868,2546 3874,2537 3892,2524 3925,2505 3975,2482 4046,2454 4146,2420 4259,2386 4371,2354 4479,2324 4578,2300 4661,2283 4722,2271 4767,2263 4793,2259 4807,2258 4813,2257 4818,2258 4814,2267 4809,2289 4796,2328 4760,2407 4701,2485 4632,2561 4560,2633 4461,2716 4361,2776 4286,2817 4229,2847 4194,2863 4176,2871 4169,2873 4177,2866 4177,2866"/>
    <!-- Timestamp = 1600ms -->
    <polyline points="3938,2502 3929,2501 3923,2501 3922,2507 3924,2512 3926,2520 3933,2532 3941,2546 3951,2562 3960,2573 3967,2584 3972,2592 3978,2597 3978,2597"/>
    <!-- Timestamp = 100ms -->
    <polyline points="3979,2500 3972,2506 3972,2516 3975,2527 3982,2541 3990,2555 3998,2571 4006,2585 4013,2595 4018,2602 4021,2613 4021,2613"/>
    <!-- Timestamp = 100ms -->
    <polyline points="4005,2508 4011,2516 4018,2527 4027,2540 4039,2556 4052,2573 4062,2589 4071,2600 4079,2608 4085,2621 4085,2621"/>
    <!-- Timestamp = 100ms -->
    <polyline points="4017,2478 4026,2479 4034,2485 4044,2496 4056,2509 4068,2526 4081,2544 4093,2562 4105,2579 4118,2591 4127,2599 4134,2605 4139,2614 4139,2614"/>
    <!-- Timestamp = 80ms -->
    <polyline points="4098,2454 4097,2460 4100,2469 4106,2479 4113,2494 4122,2512 4132,2531 4144,2549 4152,2564 4159,2579 4164,2588 4167,2599 4167,2599"/>
    <!-- Timestamp = 100ms -->
    <polyline points="4172,2440 4175,2453 4179,2468 4184,2483 4190,2498 4195,2512 4201,2527 4205,2541 4210,2551 4214,2558 4217,2580 4217,2580"/>
    <!-- Timestamp = 80ms -->
    <polyline points="4199,2411 4200,2417 4203,2426 4206,2442 4212,2457 4219,2473 4227,2491 4235,2506 4243,2517 4249,2526 4254,2530 4259,2531 4259,2531"/>
    <!-- Timestamp = 100ms -->
    <polyline points="4270,2403 4271,2412 4275,2424 4279,2442 4283,2455 4287,2468 4293,2479 4296,2488 4299,2507"/>
    <!-- Timestamp = 60ms -->
    <polyline points="4296,2427 4302,2434 4308,2442 4316,2458 4316,2458"/>
    <!-- Timestamp = 380ms -->
    <polyline points="4403,2285 4405,2291 4408,2300 4411,2311 4415,2320 4420,2328 4409,2334 4409,2334"/>
    <!-- Timestamp = 120ms -->
    <polyline points="4429,2221 4431,2232 4435,2246 4439,2264 4443,2281 4448,2298 4451,2312 4456,2329 4456,2329"/>
    <!-- Timestamp = 120ms -->
    <polyline points="4465,2191 4466,2203 4468,2219 4473,2240 4475,2261 4480,2278 4486,2294 4492,2305 4496,2312 4491,2315"/>
    <!-- Timestamp = 100ms -->
    <polyline points="4494,2102 4496,2116 4498,2138 4500,2171 4506,2201 4515,2230 4521,2256 4527,2278 4532,2297 4534,2307 4536,2312 4536,2312"/>
    <!-- Timestamp = 60ms -->
    <polyline points="4502,2119 4507,2123 4513,2129 4520,2143 4526,2169 4534,2196 4544,2226 4552,2255 4561,2286 4570,2311 4579,2334 4579,2334"/>
    <!-- Timestamp = 440ms -->
    <polyline points="4549,2125 4555,2140 4565,2165 4579,2189 4591,2214 4603,2237 4615,2262"/>
    <!-- Timestamp = 320ms -->
    <polyline points="4640,2329 4643,2343 4647,2358 4652,2374 4657,2391 4663,2407 4669,2421 4674,2432 4680,2435 4680,2435"/>
    <!-- Timestamp = 120ms -->
    <polyline points="4695,2308 4693,2316 4695,2326 4700,2337 4703,2349 4708,2362 4715,2374 4718,2386 4718,2386"/>
    <!-- Timestamp = 120ms -->
    <polyline points="4728,2306 4732,2319 4736,2333 4740,2347 4746,2359 4752,2372 4758,2383 4762,2388 4764,2398 4764,2398"/>
    <!-- Timestamp = 100ms -->
    <polyline points="4736,2300 4740,2309 4745,2319 4753,2331 4761,2348 4770,2360 4776,2370 4783,2378 4790,2390"/>
    <!-- Timestamp = 360ms -->
    <polyline points="4770,2276 4773,2284 4779,2292 4784,2303 4789,2317 4797,2328 4806,2339 4802,2348"/>
    <!-- Timestamp = 540ms -->
    <polyline points="4208,2806 4211,2813 4215,2818 4214,2818"/>
    <!-- Timestamp = 120ms -->
    <polyline points="4227,2767 4230,2776 4237,2783 4244,2790 4247,2799 4250,2806 4250,2813 4243,2811"/>
    <!-- Timestamp = 80ms -->
    <polyline points="4244,2727 4248,2734 4253,2744 4258,2754 4265,2763 4270,2771 4274,2779 4280,2785 4283,2790 4283,2790"/>
    <!-- Timestamp = 80ms -->
    <polyline points="4259,2680 4254,2680 4256,2686 4259,2694 4266,2703 4272,2713 4279,2726 4285,2738 4292,2748 4296,2755 4296,2755"/>
    <!-- Timestamp = 60ms -->
    <polyline points="4288,2690 4293,2692 4298,2696 4304,2702 4311,2712 4319,2725 4329,2734 4336,2742 4343,2747 4347,2741 4350,2735 4352,2725 4356,2716 4361,2709 4366,2708 4373,2714 4378,2722 4384,2728 4391,2733 4396,2737 4402,2739 4402,2739"/>
    <!-- Timestamp = 340ms -->
    <polyline points="4480,2691 4483,2698 4485,2710 4490,2718 4499,2728 4506,2732 4506,2732"/>
    <!-- Timestamp = 120ms -->
    <polyline points="4533,2677 4537,2690 4540,2707 4545,2725 4552,2737 4559,2747"/>
    <!-- Timestamp = 120ms -->
    <polyline points="4570,2641 4573,2654 4576,2670 4580,2690 4585,2717 4592,2738 4597,2753 4603,2765 4608,2771 4611,2784 4611,2784"/>
    <!-- Timestamp = 80ms -->
    <polyline points="4628,2552 4615,2553 4609,2558 4608,2569 4609,2590 4612,2616 4618,2650 4626,2681 4634,2716 4645,2742 4653,2759 4660,2771 4665,2777 4670,2778 4670,2778"/>
    <!-- Timestamp = 80ms -->
    <polyline points="4621,2568 4626,2584 4633,2605 4642,2633 4654,2662 4665,2692 4679,2720 4691,2741 4699,2754 4706,2762 4710,2775"/>
    <!-- Timestamp = 80ms -->
    <polyline points="4667,2554 4671,2578 4677,2610 4684,2647 4693,2683 4701,2724 4709,2755 4718,2779 4727,2797 4738,2807 4747,2813 4747,2813"/>
    <!-- Timestamp = 1280ms -->
    <polyline points="4449,2368 4442,2372 4434,2381 4423,2395 4408,2412 4389,2434 4364,2454 4340,2470 4340,2470"/>
    <!-- Timestamp = 180ms -->
    <polyline points="4463,2406 4430,2446 4383,2488 4339,2527 4304,2562 4279,2587 4279,2587"/>
    <!-- Timestamp = 140ms -->
    <polyline points="4597,2334 4579,2349 4556,2370 4528,2394 4488,2441 4440,2484 4395,2523 4358,2556 4332,2584 4314,2606 4295,2618"/>
    <!-- Timestamp = 100ms -->
    <polyline points="4619,2352 4612,2360 4602,2370 4584,2386 4563,2405 4538,2441 4493,2487 4449,2534 4401,2585 4353,2630 4309,2670 4279,2697 4261,2714 4261,2714"/>
    <!-- Timestamp = 100ms -->
    <polyline points="4609,2395 4598,2404 4579,2423 4554,2459 4516,2499 4465,2551 4419,2595 4377,2632 4344,2662 4321,2682 4312,2692 4313,2683 4313,2683"/>
    <!-- Timestamp = 80ms -->
    <polyline points="4606,2469 4591,2486 4568,2509 4539,2537 4509,2568 4465,2601 4429,2628 4402,2645 4388,2652 4382,2657 4384,2652 4400,2632"/>
    <!-- Timestamp = 60ms -->
    <polyline points="4636,2478 4628,2493 4611,2515 4586,2542 4558,2574 4526,2605 4492,2633 4464,2653 4446,2666 4437,2671 4437,2671"/>
    <!-- End Layer 1 -->
    <polyline points="498,3550 496,3545 493,3553 493,3567 494,3578 495,3594 496,3606 498,3620 500,3632 500,3643 502,3650 504,3656 505,3661 508,3663"/>
    <!-- Timestamp = 160ms -->
    <polyline points="336,3543 335,3548 340,3548 352,3548 367,3548 387,3547 409,3547 431,3545 454,3544 479,3543 502,3542 522,3540 538,3540 550,3540 561,3537 568,3538 568,3538"/>
    <!-- Timestamp = 100ms -->
    <polyline points="582,3495 580,3503 580,3512 581,3526 582,3542 585,3568 589,3588 592,3609 594,3625 596,3637 598,3644 599,3649 602,3641 605,3627 609,3615 613,3606 617,3601 622,3597 629,3597 636,3600 642,3602 647,3607 652,3616 656,3624 660,3633 664,3640 669,3647 674,3652 679,3655 684,3657 690,3657 695,3653 700,3649 705,3643 709,3637 711,3631 712,3637 714,3645 717,3650 723,3654 729,3658 738,3659 747,3660 756,3660 765,3658 773,3657 779,3653 782,3648 786,3643 790,3634 792,3627 795,3622 797,3617 803,3625 808,3635 813,3647 816,3658 818,3669 819,3677 819,3683 813,3686 803,3680 794,3675 794,3675"/>
    <!-- Timestamp = 60ms -->
    <polyline points="707,3554 702,3554 707,3554 707,3554"/>
    <!-- Timestamp = 480ms -->
    <polyline points="962,3683 968,3676 979,3667 991,3658 1003,3647 1013,3636 1022,3626 1028,3616 1031,3608 1034,3603 1039,3615 1045,3628 1051,3643 1057,3654 1060,3667 1061,3681 1056,3695 1046,3707 1031,3716 1012,3721 993,3723 977,3723 967,3721 961,3719 960,3714 963,3708 975,3702 989,3697 1006,3694 1025,3690 1045,3682 1065,3673 1084,3662 1103,3650 1116,3637 1124,3627 1130,3616 1132,3603 1133,3592 1132,3584 1129,3577 1127,3568 1123,3560 1121,3572 1122,3587 1125,3605 1128,3623 1131,3638 1132,3651 1133,3660 1135,3665 1140,3656 1145,3645 1151,3634 1157,3628 1162,3625 1170,3631 1175,3638 1180,3645 1188,3654 1196,3661 1204,3667 1214,3672 1225,3675 1237,3675 1246,3675 1255,3673 1263,3670 1269,3666 1274,3662 1278,3657 1274,3663 1270,3670 1265,3676 1264,3684 1266,3691 1271,3697 1278,3699 1285,3700 1293,3699 1298,3695 1301,3689 1297,3682 1294,3675 1291,3669 1289,3663 1286,3657 1286,3652 1287,3647 1293,3642 1299,3638 1305,3634 1310,3633 1316,3633 1321,3636 1323,3643 1326,3651 1330,3660 1333,3668 1335,3675 1340,3680 1345,3685 1350,3687 1357,3687 1363,3686 1370,3684 1380,3682 1391,3680 1404,3675 1418,3668 1431,3659 1442,3649 1450,3639 1454,3629 1455,3617 1453,3604 1450,3596 1446,3587 1440,3584 1435,3588 1433,3600 1432,3614 1434,3630 1439,3644 1446,3656 1456,3666 1469,3672 1487,3674 1507,3672 1529,3667 1548,3660 1564,3655 1575,3652 1581,3651 1573,3658 1561,3666 1550,3675 1544,3685 1543,3696 1546,3704 1552,3707 1561,3704 1573,3696 1583,3684 1592,3672 1596,3657 1598,3638 1597,3615 1595,3589 1593,3560 1589,3538 1588,3526 1587,3520 1586,3540 1588,3577 1591,3612 1594,3641 1594,3665 1598,3684 1600,3698 1603,3705 1603,3705"/>
    <!-- Timestamp = 780ms -->
    <polyline points="1856,3526 1851,3543 1846,3570 1846,3594 1848,3618 1851,3638 1858,3654 1865,3665 1869,3670 1871,3664 1873,3659 1877,3654 1882,3652 1890,3650 1901,3651 1911,3654 1917,3657 1919,3667 1912,3676 1903,3682 1892,3687 1883,3688 1893,3683 1907,3675 1928,3667 1946,3656 1960,3645 1972,3637 1979,3633 1981,3628 1974,3629 1967,3634 1963,3646 1959,3655 1958,3670 1959,3685 1959,3685"/>
    <!-- Timestamp = 320ms -->
    <polyline points="2258,3600 2249,3609 2237,3624 2226,3638 2215,3653 2209,3666 2205,3677 2203,3685 2209,3691 2215,3696 2227,3697 2239,3694 2248,3687 2259,3676 2269,3663 2277,3650 2281,3638 2280,3629 2277,3620 2273,3614 2268,3610 2261,3610 2259,3617 2259,3627 2260,3638 2262,3650 2265,3663 2268,3672 2270,3678 2276,3683 2282,3685 2288,3687 2294,3686 2303,3682 2310,3677 2317,3671 2325,3666 2334,3662 2341,3659 2348,3656 2353,3656 2356,3664 2358,3670 2364,3669 2370,3665 2377,3663 2383,3661 2390,3661 2397,3662 2405,3666 2413,3669 2422,3672 2432,3674 2441,3676 2451,3674 2462,3671 2471,3667 2481,3663 2487,3661 2485,3669 2484,3676 2486,3684 2491,3691 2497,3694 2504,3695 2509,3694 2507,3686 2505,3677 2499,3670 2493,3665 2486,3662 2481,3660 2486,3660 2492,3661 2500,3659 2512,3654 2525,3648 2540,3640 2552,3632 2562,3626 2569,3621 2570,3614 2565,3619 2563,3627 2564,3638 2567,3649 2571,3659 2575,3666 2584,3672 2592,3675 2604,3673 2619,3668 2632,3660 2645,3652 2655,3641 2660,3627 2664,3611 2667,3593 2667,3575 2665,3557 2664,3541 2661,3531 2658,3525 2658,3538 2659,3563 2661,3589 2665,3615 2668,3639 2672,3659 2674,3675 2678,3686 2681,3692 2683,3686 2683,3679 2683,3674 2682,3669 2684,3663 2690,3661 2695,3661 2702,3661 2709,3665 2719,3668 2730,3670 2741,3671 2752,3669 2766,3666 2781,3662 2792,3657 2798,3653 2805,3650 2794,3648 2786,3651 2786,3657 2787,3662 2793,3663 2800,3664 2808,3664 2817,3664 2827,3667 2838,3672 2849,3682 2862,3695 2874,3709 2883,3722 2889,3730 2893,3735 2891,3728 2890,3720 2890,3706 2897,3690 2908,3674 2924,3662 2943,3651 2961,3651 2961,3651"/>
    <!-- Timestamp = 400ms -->
    <polyline points="2549,3519 2551,3530 2550,3547 2549,3570 2553,3597 2556,3621 2562,3643 2567,3663 2572,3677 2574,3689 2576,3698 2576,3698"/>
    <!-- Timestamp = 60ms -->
    <polyline points="2505,3606 2510,3604 2517,3602 2527,3598 2542,3592 2563,3584 2589,3578 2589,3578"/>
    <!-- Timestamp = 580ms -->
    <polyline points="3252,3680 3268,3667 3285,3651 3303,3631 3317,3611 3326,3590 3329,3566 3328,3547 3323,3533 3318,3525 3311,3521 3304,3520 3295,3528 3282,3538 3271,3551 3263,3572 3260,3591 3261,3608 3268,3624 3278,3639 3295,3650 3309,3656 3327,3658 3343,3659 3356,3656 3370,3649 3383,3640 3394,3633 3401,3629 3395,3630 3389,3634 3385,3643 3378,3651 3377,3657 3377,3664 3383,3668 3389,3670 3394,3669 3399,3668 3404,3664 3410,3659 3415,3653 3420,3648 3423,3641 3425,3635 3423,3630 3422,3635 3419,3640 3420,3647 3422,3652 3426,3657 3431,3661 3438,3664 3447,3666 3459,3665 3470,3663 3482,3658 3493,3653 3500,3650 3506,3656 3512,3661 3518,3662 3524,3665 3532,3664 3541,3662 3548,3662 3556,3664 3565,3671 3575,3684 3585,3705 3597,3733 3610,3763 3616,3790 3620,3816 3619,3840 3608,3856 3597,3867 3585,3871 3571,3868 3561,3863 3551,3847 3544,3828 3541,3802 3546,3771 3558,3740 3574,3708 3593,3682 3612,3662 3624,3645 3635,3633 3640,3628 3633,3631 3627,3638 3622,3645 3620,3650 3623,3655 3629,3662 3639,3671 3653,3680 3667,3688 3681,3698 3693,3708 3702,3714 3707,3717 3701,3713 3697,3703 3692,3691 3690,3675 3693,3659 3702,3643 3715,3625 3732,3607 3754,3594 3777,3578 3804,3566 3828,3553 3828,3553"/>
    <!-- End Layer 2 -->
    <polyline points="374,4150 374,4144 379,4142 386,4140 394,4138 400,4137 405,4135 410,4135 415,4135 420,4135 427,4134 432,4133 437,4134 442,4132 447,4132 453,4132 458,4131 463,4131 468,4131 473,4130 478,4131 483,4131 489,4131 496,4131 501,4131 506,4129 512,4130 519,4130 526,4130 532,4130 537,4128 542,4130 547,4131 552,4129 558,4132 563,4132 570,4131 575,4132 582,4131 588,4132 593,4132 598,4131 603,4132 608,4134 613,4133 619,4135 624,4136 631,4136 637,4135 643,4136 649,4136 654,4137 660,4135 667,4137 674,4138 679,4138 684,4138 689,4138 696,4139 703,4140 710,4141 717,4140 726,4142 733,4141 740,4142 748,4141 754,4143 759,4144 764,4142 770,4141 777,4141 782,4141 788,4139 794,4139 802,4139 808,4139 816,4138 823,4137 828,4139 835,4139 843,4137 851,4137 858,4137 866,4137 875,4136 882,4138 890,4136 897,4135 902,4134 907,4135 912,4134 919,4137 926,4138 934,4139 944,4139 953,4137 964,4138 974,4140 984,4138 994,4138 1002,4139 1011,4139 1019,4139 1027,4139 1036,4140 1043,4140 1050,4140 1060,4139 1070,4139 1079,4142 1088,4142 1093,4142 1087,4144 1081,4144 1081,4144"/>
    <!-- Timestamp = 2260ms -->
    <polyline points="1422,3950 1417,3950 1423,3951 1428,3951 1433,3951 1438,3951 1443,3951 1448,3951 1455,3952 1460,3952 1465,3952 1471,3953 1476,3953 1481,3953 1489,3954 1495,3954 1501,3954 1507,3954 1514,3955 1519,3956 1524,3956 1532,3957 1539,3955 1545,3955 1551,3956 1557,3957 1564,3957 1570,3958 1576,3958 1582,3959 1588,3959 1595,3960 1600,3959 1608,3962 1614,3963 1620,3964 1625,3964 1630,3965 1635,3966 1642,3967 1649,3968 1656,3968 1661,3967 1666,3968 1672,3968 1677,3968 1682,3967 1689,3968 1694,3968 1700,3968 1706,3968 1713,3968 1721,3967 1726,3965 1731,3965 1736,3965 1741,3963 1747,3962 1752,3961 1757,3960 1762,3959 1768,3958 1773,3958 1778,3958 1783,3959 1790,3959 1795,3960 1800,3960 1805,3960 1810,3960 1817,3962 1822,3962 1829,3961 1837,3961 1843,3960 1850,3960 1859,3959 1867,3961 1872,3962 1877,3963 1886,3964 1894,3964 1899,3964 1905,3963 1910,3964 1915,3965 1920,3965 1926,3965 1934,3965 1941,3965 1946,3966 1951,3967 1956,3966 1961,3966 1968,3966 1974,3967 1982,3968 1989,3968 1997,3968 2005,3968 2010,3968 2019,3970 2024,3970 2032,3971 2040,3973 2048,3973 2055,3973 2061,3973 2069,3973 2075,3973 2080,3972 2086,3972 2092,3972 2098,3971 2103,3971 2110,3972 2116,3972 2126,3972 2137,3971 2147,3971 2159,3970 2170,3970 2182,3969 2196,3969 2211,3969 2221,3969 2234,3966 2241,3966 2248,3966 2253,3966 2253,3956 2253,3956"/>
    <!-- Timestamp = 2540ms -->
    <polyline points="2540,4045 2547,4047 2552,4049 2560,4049 2567,4051 2576,4051 2586,4053 2594,4053 2601,4054 2607,4055 2615,4057 2625,4055 2635,4055 2642,4057 2650,4056 2658,4057 2667,4058 2672,4057 2680,4057 2688,4055 2697,4057 2705,4056 2712,4056 2719,4057 2728,4055 2735,4055 2744,4053 2753,4053 2760,4053 2768,4053 2775,4053 2784,4054 2789,4053 2801,4053 2811,4052 2822,4051 2833,4051 2842,4051 2849,4050 2856,4049 2864,4048 2873,4049 2878,4049 2885,4050 2893,4048 2901,4049 2908,4049 2914,4049 2922,4048 2929,4048 2936,4049 2947,4049 2956,4050 2967,4049 2977,4049 2985,4049 2994,4048 3005,4048 3017,4047 3027,4047 3036,4048 3044,4049 3053,4049 3060,4049 3068,4049 3077,4049 3082,4049 3091,4048 3101,4048 3110,4048 3120,4049 3128,4049 3136,4048 3145,4048 3155,4049 3162,4049 3169,4048 3178,4048 3188,4048 3196,4047 3204,4046 3211,4046 3220,4047 3228,4045 3236,4045 3244,4045 3253,4045 3259,4045 3265,4044 3272,4044 3279,4045 3287,4046 3293,4045 3302,4044 3309,4045 3314,4045 3321,4045 3327,4043 3334,4042 3339,4041 3344,4040 3344,4040"/>
    <!-- End Layer 3 -->
</svg>
